<?xml version="1.0" standalone="no"?>
<!DOCTYPE svg PUBLIC "-//W3C//DTD SVG 20010904//EN"
 "http://www.w3.org/TR/2001/REC-SVG-20010904/DTD/svg10.dtd">
<svg version="1.0" xmlns="http://www.w3.org/2000/svg"
 width="250.000000pt" height="250.000000pt" viewBox="0 0 250.000000 250.000000"
 preserveAspectRatio="xMidYMid meet">

<g transform="translate(0.000000,250.000000) scale(0.100000,-0.100000)"
fill="#000000" stroke="none">
<path d="M1239 2034 c-1 -5 -1 -52 0 -104 l2 -95 -95 -214 c-87 -194 -93 -214
-76 -218 20 -5 29 -43 10 -43 -5 0 -10 -22 -10 -49 0 -28 5 -53 10 -56 6 -3
10 -50 10 -106 0 -92 -1 -99 -20 -99 -13 0 -20 -7 -20 -20 0 -16 -7 -20 -30
-20 -23 0 -30 4 -30 20 0 16 -7 20 -35 20 -40 0 -46 16 -15 43 24 20 27 75 5
83 -19 8 -19 42 0 46 11 2 -1 32 -50 120 -36 64 -65 122 -65 127 0 6 11 11 25
11 15 0 25 -6 25 -14 0 -18 22 -26 71 -26 41 0 49 9 24 30 -14 12 -14 15 1 31
16 18 16 19 -12 19 -18 0 -34 7 -42 20 -9 15 -23 20 -52 20 -29 0 -40 4 -40
15 0 8 -4 15 -10 15 -6 0 -10 -29 -10 -67 0 -65 -4 -74 -64 -183 -46 -83 -60
-116 -50 -118 19 -5 18 -38 -1 -46 -22 -8 -19 -63 5 -83 19 -17 20 -30 20
-244 0 -235 -3 -252 -41 -228 -29 18 -49 10 -56 -22 -3 -17 -13 -33 -22 -36
-9 -2 -24 -9 -33 -14 -10 -5 -30 -9 -44 -9 -23 0 -26 -3 -22 -25 5 -22 2 -25
-26 -26 -17 0 -40 -4 -51 -9 -11 -5 345 -8 825 -8 465 0 834 4 820 8 -14 4
-37 8 -51 9 -20 1 -25 6 -25 24 1 18 -5 23 -31 25 -18 2 -33 7 -33 13 0 5 -8
9 -18 9 -23 0 -42 19 -42 42 0 23 -22 33 -47 20 -41 -21 -43 -11 -43 227 0
214 1 227 20 244 24 20 27 75 5 83 -19 8 -20 42 0 46 10 2 -3 33 -50 118 -35
63 -64 121 -65 128 0 20 44 14 58 -8 9 -15 23 -20 57 -20 47 0 56 9 30 30 -14
12 -14 15 1 31 16 18 16 19 -14 19 -22 0 -32 6 -37 20 -5 16 -15 20 -51 20
-32 0 -44 4 -44 15 0 8 -4 15 -10 15 -6 0 -10 -29 -10 -67 0 -65 -3 -73 -65
-183 -48 -85 -60 -116 -50 -118 20 -4 19 -38 0 -46 -22 -8 -19 -63 5 -83 31
-27 25 -43 -16 -43 -27 0 -37 -5 -41 -20 -7 -27 -49 -27 -56 0 -3 12 -14 20
-26 20 -20 0 -21 5 -21 93 1 65 5 98 15 111 20 27 20 106 0 106 -8 0 -15 9
-15 20 0 13 7 20 20 20 11 0 20 3 20 8 0 4 -40 99 -90 210 -49 112 -90 214
-90 228 0 20 5 24 33 24 24 0 35 -6 42 -22 9 -20 18 -23 83 -26 77 -3 88 5 45
33 l-27 18 27 23 c15 13 27 26 27 29 0 3 -19 5 -43 5 -34 0 -44 4 -52 23 -9
19 -19 22 -74 25 -56 3 -63 5 -58 22 3 11 -1 24 -9 31 -8 6 -15 8 -15 3z m93
-104 c-4 -38 -6 -40 -38 -40 -33 0 -34 1 -34 40 0 40 0 40 38 40 l38 0 -4 -40z
m44 15 c3 -17 -12 -20 -21 -5 -7 12 4 34 13 25 3 -3 7 -12 8 -20z m57 -50
c-17 -13 -17 -14 2 -35 l19 -21 -49 3 c-49 3 -50 4 -53 38 l-3 35 51 -4 c45
-3 49 -5 33 -16z m-258 -282 c-42 -98 -81 -182 -87 -188 -15 -14 -14 -12 76
194 44 99 81 179 83 177 3 -2 -30 -84 -72 -183z m-295 -88 c0 -20 -5 -25 -25
-25 -20 0 -25 5 -25 25 0 20 5 25 25 25 20 0 25 -5 25 -25z m860 0 c0 -20 -5
-25 -25 -25 -20 0 -25 5 -25 25 0 20 5 25 25 25 20 0 25 -5 25 -25z m30 9 c0
-8 -5 -12 -10 -9 -6 4 -8 11 -5 16 9 14 15 11 15 -7z m-860 -4 c0 -5 -2 -10
-4 -10 -3 0 -8 5 -11 10 -3 6 -1 10 4 10 6 0 11 -4 11 -10z m39 -36 c-10 -13
-10 -17 2 -25 10 -7 4 -9 -20 -7 -28 2 -35 7 -36 26 -1 19 3 22 33 22 30 0 33
-2 21 -16z m863 4 c-9 -9 -9 -15 0 -26 10 -11 6 -13 -23 -10 -27 2 -34 7 -35
26 -1 19 4 22 34 22 28 0 33 -3 24 -12z m-1044 -171 c-29 -53 -54 -95 -56 -93
-1 2 21 47 50 99 29 53 54 95 56 93 1 -2 -21 -47 -50 -99z m907 86 c-13 -37
-97 -184 -101 -180 -3 3 19 48 48 101 50 91 69 118 53 79z m-295 -33 c0 -15
-7 -20 -25 -20 -18 0 -25 -5 -25 -20 0 -13 -7 -20 -18 -20 -13 0 -18 6 -16 23
1 12 3 26 3 30 1 5 6 5 13 1 7 -4 8 -3 4 4 -10 17 -26 15 -26 -3 0 -11 -12
-15 -45 -15 -38 0 -45 -3 -45 -20 0 -13 -7 -20 -20 -20 -13 0 -20 7 -20 20 0
15 -7 20 -25 20 -18 0 -25 5 -25 20 0 19 7 20 135 20 128 0 135 -1 135 -20z
m-240 -60 c0 -16 7 -20 36 -20 27 0 37 5 41 20 4 15 13 20 37 19 28 -2 29 -2
5 -6 -17 -3 -29 -12 -32 -26 -6 -20 -5 -20 7 -4 14 19 36 23 36 7 0 -5 18 -10
40 -10 33 0 40 3 40 20 0 16 7 20 31 20 29 0 30 -2 27 -37 l-3 -38 -160 0
-160 0 -3 38 c-3 35 -2 37 27 37 24 0 31 -4 31 -20z m240 -175 c0 -78 -3 -95
-15 -95 -8 0 -15 -9 -15 -20 0 -14 -7 -20 -24 -20 -15 0 -26 7 -29 20 -4 16
-14 20 -51 20 -39 0 -46 -3 -46 -20 0 -16 -7 -20 -30 -20 -23 0 -30 4 -30 20
0 11 -7 20 -15 20 -12 0 -15 17 -15 95 l0 95 135 0 135 0 0 -95z m-530 55 c0
-15 -7 -20 -30 -20 -16 0 -33 -7 -38 -16 -8 -15 -11 -15 -31 5 -38 38 -28 51
39 51 53 0 60 -2 60 -20z m860 0 c0 -15 -7 -20 -30 -20 -16 0 -33 -7 -38 -16
-8 -15 -11 -15 -31 5 -38 38 -28 51 39 51 53 0 60 -2 60 -20z m-800 -5 c0 -8
-7 -15 -15 -15 -8 0 -15 -7 -15 -15 0 -8 -5 -15 -10 -15 -6 0 -9 14 -8 30 2
24 7 30 25 30 14 0 23 -6 23 -15z m860 0 c0 -8 -7 -15 -15 -15 -8 0 -15 -7
-15 -15 0 -8 -4 -15 -10 -15 -5 0 -10 14 -10 30 0 25 4 30 25 30 16 0 25 -6
25 -15z m-1030 -50 c0 -10 10 -15 30 -15 20 0 30 5 30 15 0 8 9 15 20 15 11 0
20 -7 20 -15 0 -10 10 -15 30 -15 20 0 30 5 30 15 0 8 9 15 21 15 16 0 20 -5
17 -27 -2 -16 -6 -27 -10 -25 -5 1 -57 2 -118 2 l-110 0 0 25 c0 18 5 25 20
25 11 0 20 -7 20 -15z m860 0 c0 -10 10 -15 30 -15 20 0 30 5 30 15 0 8 9 15
20 15 11 0 20 -7 20 -15 0 -10 10 -15 30 -15 17 0 33 0 37 -1 4 0 9 5 11 13 2
9 0 8 -7 -2 -9 -13 -11 -13 -11 3 0 10 8 17 20 17 15 0 20 -7 20 -25 l0 -26
-120 2 c-119 1 -120 1 -120 25 0 17 6 24 20 24 11 0 20 -7 20 -15z m-700 -360
l0 -295 -80 0 -80 0 0 295 0 295 80 0 80 0 0 -295z m860 0 l0 -295 -80 0 -80
0 0 295 0 295 80 0 80 0 0 -295z m-787 225 c4 -16 14 -20 47 -20 33 0 43 4 47
20 7 27 61 29 59 3 -1 -15 8 -19 47 -21 42 -3 47 -1 47 17 0 17 6 21 30 21 16
0 29 -3 29 -7 -4 -27 4 -33 46 -33 38 0 45 3 45 20 0 16 7 20 30 20 23 0 30
-4 30 -20 0 -17 7 -20 45 -20 38 0 45 3 45 20 0 16 7 20 30 20 l30 0 0 -270 0
-270 -64 0 -64 0 -6 118 c-4 64 -7 135 -9 156 -1 25 -8 41 -17 44 -8 3 -18 10
-22 16 -6 8 -8 7 -8 -1 0 -7 8 -16 17 -21 9 -6 18 -18 19 -27 2 -11 -8 -5 -26
16 -15 19 -25 39 -22 44 3 6 2 7 -3 3 -4 -4 -19 -1 -34 6 -75 38 -158 26 -222
-31 -58 -52 -69 -87 -69 -214 l0 -109 -65 0 -65 0 0 270 0 270 24 0 c15 0 26
-7 29 -20z m347 -180 c11 -6 17 -16 14 -24 -4 -11 -12 -11 -45 1 -31 10 -50
11 -81 2 -56 -15 -76 4 -27 26 36 16 104 14 139 -5z m-179 -63 c-7 -7 -17 -12
-23 -12 -6 0 -13 -7 -15 -15 -4 -13 -3 -13 6 0 12 17 14 10 5 -14 -3 -9 -9
-14 -13 -12 -3 2 -6 -46 -5 -107 l0 -112 -5 95 -5 95 -7 -100 -6 -100 1 126
c1 122 2 127 30 164 25 33 30 35 38 20 7 -11 6 -21 -1 -28z m253 -1 c18 -23
21 -45 24 -152 3 -110 2 -124 -13 -124 -14 0 -16 14 -13 114 2 68 -1 112 -6
108 -5 -3 -6 3 -2 14 4 10 4 15 0 11 -9 -8 -43 44 -37 56 8 13 25 3 47 -27z
m-154 -126 l0 -150 -60 0 -60 0 2 98 2 97 3 -92 c2 -51 7 -93 11 -93 4 0 6 31
4 69 -4 85 11 145 46 180 15 14 26 29 24 34 -1 4 5 7 13 7 13 0 15 -23 15
-150z m70 135 c48 -25 60 -61 60 -180 l0 -105 -55 0 -55 0 0 150 c0 98 4 150
10 150 6 0 24 -7 40 -15z m-129 -11 c-13 -9 -29 -31 -37 -48 -7 -17 -13 -23
-14 -14 0 20 47 78 63 78 6 0 1 -7 -12 -16z m-474 -162 c10 8 13 -1 13 -51 l0
-61 -94 0 c-72 0 -97 4 -106 15 -16 20 -7 29 22 22 27 -7 44 -5 41 6 -2 4 5 7
15 7 13 0 24 14 35 41 16 39 17 40 38 25 17 -11 26 -13 36 -4z m1153 -13 c0
-25 22 -49 45 -49 9 0 13 -5 9 -11 -4 -8 3 -9 25 -4 38 8 57 -1 40 -21 -8 -10
-37 -14 -105 -14 l-94 0 0 61 c0 48 3 59 13 51 8 -7 18 -6 31 4 23 16 36 10
36 -17z"/>
<path d="M1346 1382 c-3 -5 1 -9 9 -9 8 0 12 4 9 9 -3 4 -7 8 -9 8 -2 0 -6 -4
-9 -8z"/>
<path d="M1108 1323 c7 -3 16 -2 19 1 4 3 -2 6 -13 5 -11 0 -14 -3 -6 -6z"/>
<path d="M1378 1323 c7 -3 16 -2 19 1 4 3 -2 6 -13 5 -11 0 -14 -3 -6 -6z"/>
<path d="M1188 1283 c7 -3 16 -2 19 1 4 3 -2 6 -13 5 -11 0 -14 -3 -6 -6z"/>
<path d="M1283 1224 c4 -7 -12 -10 -51 -8 -31 1 -49 0 -39 -3 15 -4 16 -7 6
-19 -7 -8 -13 -29 -14 -47 -2 -18 -6 -40 -10 -50 -12 -28 4 -36 75 -38 36 -1
72 -7 80 -13 12 -9 13 -8 3 4 -6 8 -16 44 -22 80 -14 83 -15 88 -26 97 -4 4
-5 3 -2 -3z m-2 -41 c13 -16 12 -17 -3 -4 -10 7 -18 15 -18 17 0 8 8 3 21 -13z
m-74 -60 c-3 -10 -5 -2 -5 17 0 19 2 27 5 18 2 -10 2 -26 0 -35z m93 -38 c0
-5 -25 -11 -55 -13 -45 -2 -55 0 -55 13 0 13 10 15 55 13 30 -2 55 -7 55 -13z"/>
<path d="M1339 1228 c-5 -15 -4 -50 1 -53 3 -2 6 9 6 26 0 24 -3 37 -7 27z"/>
<path d="M1320 1132 c0 -11 7 -23 16 -26 13 -5 14 -4 6 7 -7 8 -9 16 -6 19 3
3 1 9 -5 13 -6 3 -11 -2 -11 -13z"/>
<path d="M790 1063 c49 -8 67 -22 62 -52 -3 -23 -8 -27 -27 -23 -25 4 -38 -10
-41 -48 -1 -14 -5 -33 -9 -43 -12 -27 9 -43 53 -39 l38 4 -2 90 c-3 100 -14
118 -69 116 -26 -1 -27 -1 -5 -5z m47 -145 c-2 -13 -4 -5 -4 17 -1 22 1 32 4
23 2 -10 2 -28 0 -40z m-30 -5 c-3 -10 -5 -2 -5 17 0 19 2 27 5 18 2 -10 2
-26 0 -35z m31 -30 c-10 -2 -26 -2 -35 0 -10 3 -2 5 17 5 19 0 27 -2 18 -5z"/>
<path d="M833 839 c12 -7 17 -23 17 -59 0 -41 -3 -47 -17 -44 -29 7 -45 -11
-47 -49 0 -19 -4 -39 -9 -43 -21 -21 -5 -34 43 -34 28 0 50 -4 50 -10 0 -5 5
-10 11 -10 8 0 8 4 2 13 -17 20 -25 68 -24 142 1 84 -5 105 -27 105 -16 -1
-15 -2 1 -11z m3 -155 c1 -29 1 -29 -3 -1 -6 38 -23 34 -24 -5 -1 -25 -3 -27
-6 -10 -3 13 -2 30 1 39 10 24 31 9 32 -23z m14 -54 c0 -5 -13 -10 -30 -10
-16 0 -30 5 -30 10 0 6 14 10 30 10 17 0 30 -4 30 -10z"/>
<path d="M819 594 c27 -5 30 -9 34 -52 l4 -47 -1 50 c-1 49 -2 50 -33 53 -32
2 -32 2 -4 -4z"/>
<path d="M1645 1063 c50 -5 65 -18 65 -53 0 -23 -3 -27 -24 -23 -30 6 -43 -15
-48 -77 l-3 -45 48 -3 47 -3 -6 58 c-5 54 -4 57 10 39 13 -16 16 -17 16 -4 0
9 -7 18 -15 22 -9 3 -15 18 -15 34 0 40 -28 62 -76 60 l-39 -1 40 -4z m52
-145 c-2 -13 -4 -5 -4 17 -1 22 1 32 4 23 2 -10 2 -28 0 -40z m-30 -5 c-3 -10
-5 -2 -5 17 0 19 2 27 5 18 2 -10 2 -26 0 -35z m31 -30 c-10 -2 -26 -2 -35 0
-10 3 -2 5 17 5 19 0 27 -2 18 -5z"/>
<path d="M1726 1047 c3 -10 9 -15 12 -12 3 3 0 11 -7 18 -10 9 -11 8 -5 -6z"/>
<path d="M1735 1001 c-3 -5 -2 -12 3 -15 5 -3 9 1 9 9 0 17 -3 19 -12 6z"/>
<path d="M1693 839 c12 -7 17 -23 17 -59 0 -42 -2 -48 -19 -43 -27 7 -53 -24
-47 -58 2 -16 0 -31 -5 -35 -5 -3 -9 -12 -9 -20 0 -10 13 -14 51 -14 l51 0 -7
38 c-4 20 -7 66 -6 102 1 78 -5 100 -27 100 -16 -1 -15 -2 1 -11z m5 -165 c-3
-27 -4 -26 -9 8 -3 22 -1 34 4 29 5 -5 7 -21 5 -37z m-31 -11 c-3 -10 -5 -2
-5 17 0 19 2 27 5 18 2 -10 2 -26 0 -35z m43 -33 c0 -5 -13 -10 -30 -10 -16 0
-30 5 -30 10 0 6 14 10 30 10 17 0 30 -4 30 -10z"/>
<path d="M1713 535 c0 -22 2 -30 4 -17 2 12 2 30 0 40 -3 9 -5 -1 -4 -23z"/>
<path d="M1741 514 c0 -11 3 -14 6 -6 3 7 2 16 -1 19 -3 4 -6 -2 -5 -13z"/>
<path d="M933 968 c1 -14 5 -24 8 -22 4 2 9 -3 12 -11 4 -10 1 -12 -10 -8 -11
4 -14 2 -11 -8 3 -8 12 -13 22 -11 14 3 16 -14 18 -150 l2 -153 3 147 c3 140
2 150 -21 195 -20 40 -24 43 -23 21z"/>
<path d="M1462 730 c7 -10 14 -18 15 -16 6 6 -9 36 -18 36 -5 0 -4 -9 3 -20z"/>
<path d="M980 595 c0 -5 5 -17 10 -25 5 -8 10 -10 10 -5 0 6 -5 17 -10 25 -5
8 -10 11 -10 5z"/>
<path d="M1470 553 c8 -3 24 -13 35 -22 20 -16 20 -16 1 7 -11 12 -26 22 -35
21 -14 0 -14 -1 -1 -6z"/>
<path d="M1010 546 c0 -2 7 -7 16 -10 8 -3 12 -2 9 4 -6 10 -25 14 -25 6z"/>
<path d="M974 524 c1 -8 6 -17 11 -21 4 -4 5 -3 1 4 -4 7 2 13 16 15 22 3 22
4 -3 9 -19 4 -26 2 -25 -7z"/>
<path d="M1483 515 c0 -8 4 -12 9 -9 5 3 6 10 3 15 -9 13 -12 11 -12 -6z"/>
<path d="M1200 585 c0 -14 5 -25 10 -25 6 0 10 11 10 25 0 14 -4 25 -10 25 -5
0 -10 -11 -10 -25z"/>
<path d="M1270 585 c0 -17 5 -25 13 -22 6 2 12 12 12 22 0 10 -6 20 -12 23 -8
2 -13 -6 -13 -23z"/>
</g>
</svg>
